<svg width="48" height="48" viewBox="0 0 48 48" fill="none" xmlns="http://www.w3.org/2000/svg">
<g style="fill: none; stroke: #9D9D9D; stroke-width: 1px">
<path d="M42.0494 47.7909C41.8378 47.7909 41.6345 47.7067 41.4855 47.5551C40.9746 47.0394 36.4958 42.4237 36.4958 39.3809C36.4958 36.1432 38.9872 33.5098 42.0494 33.5098C45.1121 33.5098 47.6034 36.1432 47.6034 39.3809C47.6034 42.4237 43.1246 47.0387 42.6138 47.5551C42.4644 47.7067 42.2615 47.7909 42.0494 47.7909ZM42.0494 35.0966C39.8621 35.0966 38.0826 37.0188 38.0826 39.3809C38.0826 41.0017 40.3224 43.9739 42.0487 45.8456C43.5198 44.2434 46.0166 41.1548 46.0166 39.3809C46.0166 37.0188 44.2368 35.0966 42.0494 35.0966Z" />
<path d="M43.6362 41.4437H40.4626C40.025 41.4437 39.6694 41.0892 39.6694 40.6501V37.4769C39.6694 37.0378 40.025 36.6833 40.4626 36.6833H43.6362C44.0742 36.6833 44.4298 37.0378 44.4298 37.4769V40.6501C44.4298 41.0892 44.0742 41.4437 43.6362 41.4437ZM41.2562 39.8569H42.843V38.2701H41.2562V39.8569Z" />
<path d="M5.55359 14.4686C5.34192 14.4686 5.13867 14.3844 4.98962 14.2328C4.47876 13.7172 0 9.10107 0 6.05859C0 2.82092 2.49133 0.1875 5.55359 0.1875C8.61621 0.1875 11.1075 2.82092 11.1075 6.05859C11.1075 9.10107 6.62878 13.7164 6.11792 14.2328C5.96851 14.3844 5.76562 14.4686 5.55359 14.4686ZM5.55359 1.77429C3.36621 1.77429 1.58679 3.69653 1.58679 6.05859C1.58679 7.67944 3.82654 10.6516 5.55286 12.5229C7.02393 10.9211 9.52075 7.83252 9.52075 6.05859C9.52075 3.69653 7.74097 1.77429 5.55359 1.77429Z" />
<path d="M7.14038 9.12146H3.9668C3.52917 9.12146 3.17358 8.7666 3.17358 8.32788V5.1543C3.17358 4.71558 3.52917 4.36108 3.9668 4.36108H7.14038C7.57837 4.36108 7.93396 4.71558 7.93396 5.1543V8.32788C7.93396 8.7666 7.57837 9.12146 7.14038 9.12146ZM4.76038 7.53467H6.34717V5.94788H4.76038V7.53467Z"/>
<path d="M37.2894 47.7909H9.91736C7.51099 47.7909 5.55359 45.8328 5.55359 43.4271C5.55359 41.0215 7.51099 39.0634 9.91736 39.0634H28.9585C30.49 39.0634 31.7355 37.8179 31.7355 36.2867C31.7355 34.7556 30.49 33.5098 28.9585 33.5098H4.36377C1.9574 33.5098 0 31.5516 0 29.146C0 26.7407 1.9574 24.7826 4.36377 24.7826H43.6362C45.1677 24.7826 46.4132 23.5367 46.4132 22.0056C46.4132 20.4745 45.1677 19.229 43.6362 19.229H14.6777C12.2714 19.229 10.314 17.2709 10.314 14.8652C10.314 12.4596 12.2714 10.5015 14.6777 10.5015H36.0992C37.6304 10.5015 38.8759 9.25598 38.8759 7.72485C38.8759 6.19336 37.6304 4.94788 36.0992 4.94788H15.8679C15.4299 4.94788 15.0743 4.59302 15.0743 4.1543C15.0743 3.71558 15.4299 3.36108 15.8679 3.36108H36.0992C38.5056 3.36108 40.4626 5.31921 40.4626 7.72485C40.4626 10.1301 38.5056 12.0883 36.0992 12.0883H14.6777C13.1466 12.0883 11.9008 13.3341 11.9008 14.8652C11.9008 16.3964 13.1466 17.6422 14.6777 17.6422H43.6362C46.0426 17.6422 48 19.6 48 22.0056C48 24.4113 46.0426 26.3694 43.6362 26.3694H4.36377C2.83228 26.3694 1.58679 27.6149 1.58679 29.146C1.58679 30.6775 2.83228 31.923 4.36377 31.923H28.9585C31.3649 31.923 33.3223 33.8811 33.3223 36.2867C33.3223 38.6924 31.3649 40.6501 28.9585 40.6501H9.91736C8.38623 40.6501 7.14038 41.896 7.14038 43.4271C7.14038 44.9583 8.38623 46.2041 9.91736 46.2041H37.2894C37.7271 46.2041 38.0826 46.5586 38.0826 46.9973C38.0826 47.436 37.7271 47.7909 37.2894 47.7909Z" />
</g>
</svg>
