<svg width="50" height="50" viewBox="0 0 50 50" fill="none" xmlns="http://www.w3.org/2000/svg">
<g style="fill: none; stroke: #9D9D9D; stroke-width: 1px">
<path d="M43.75 36.7188H42.9688V2.34375C42.9688 2.13655 42.8864 1.93784 42.7399 1.79132C42.5934 1.64481 42.3947 1.5625 42.1875 1.5625H7.8125C7.6053 1.5625 7.40659 1.64481 7.26007 1.79132C7.11356 1.93784 7.03125 2.13655 7.03125 2.34375V36.7188H6.25C6.0428 36.7188 5.84409 36.8011 5.69757 36.9476C5.55106 37.0941 5.46875 37.2928 5.46875 37.5V41.4062C5.46875 41.6134 5.55106 41.8122 5.69757 41.9587C5.84409 42.1052 6.0428 42.1875 6.25 42.1875H9.375V44.5312C9.375 45.5673 9.78655 46.5608 10.5191 47.2934C11.2517 48.026 12.2452 48.4375 13.2812 48.4375C14.3173 48.4375 15.3108 48.026 16.0434 47.2934C16.7759 46.5608 17.1875 45.5673 17.1875 44.5312V42.1875H32.8125V44.5312C32.8125 45.5673 33.2241 46.5608 33.9566 47.2934C34.6892 48.026 35.6827 48.4375 36.7188 48.4375C37.7548 48.4375 38.7483 48.026 39.4809 47.2934C40.2135 46.5608 40.625 45.5673 40.625 44.5312V42.1875H43.75C43.9572 42.1875 44.1559 42.1052 44.3024 41.9587C44.4489 41.8122 44.5312 41.6134 44.5312 41.4062V37.5C44.5312 37.2928 44.4489 37.0941 44.3024 36.9476C44.1559 36.8011 43.9572 36.7188 43.75 36.7188ZM8.59375 3.125H41.4062V36.7188H40.625V32.8125C40.6244 31.932 40.4109 31.0646 40.0029 30.2844C39.5948 29.5041 39.0041 28.834 38.2812 28.3312V18.75C38.28 17.7144 37.8681 16.7215 37.1358 15.9892C36.4035 15.2569 35.4106 14.845 34.375 14.8438V10.9375C34.375 10.7303 34.2927 10.5316 34.1462 10.3851C33.9997 10.2386 33.801 10.1562 33.5938 10.1562C33.3865 10.1562 33.1878 10.2386 33.0413 10.3851C32.8948 10.5316 32.8125 10.7303 32.8125 10.9375V14.8438H16.4062V10.9375C16.4062 10.7303 16.3239 10.5316 16.1774 10.3851C16.0309 10.2386 15.8322 10.1562 15.625 10.1562C15.4178 10.1562 15.2191 10.2386 15.0726 10.3851C14.9261 10.5316 14.8438 10.7303 14.8438 10.9375V14.9219C13.962 15.1032 13.1698 15.583 12.6006 16.2803C12.0313 16.9776 11.7199 17.8498 11.7188 18.75V28.3312C10.9959 28.834 10.4052 29.5041 9.99715 30.2844C9.58906 31.0646 9.37562 31.932 9.375 32.8125V36.7188H8.59375V3.125ZM29.6875 34.375H20.3125V33.5938H29.6875V34.375ZM20.3125 35.9375H29.6875V36.7188H20.3125V35.9375ZM31.25 32.8125C31.25 32.6053 31.1677 32.4066 31.0212 32.2601C30.8747 32.1136 30.676 32.0312 30.4688 32.0312H19.5312C19.324 32.0312 19.1253 32.1136 18.9788 32.2601C18.8323 32.4066 18.75 32.6053 18.75 32.8125V36.7188H10.9375V32.8125C10.9387 31.7769 11.3507 30.784 12.083 30.0517C12.8153 29.3194 13.8081 28.9075 14.8438 28.9062H35.1562C36.1919 28.9075 37.1847 29.3194 37.917 30.0517C38.6493 30.784 39.0613 31.7769 39.0625 32.8125V36.7188H31.25V32.8125ZM15.625 16.4062H34.375C34.9966 16.4062 35.5927 16.6532 36.0323 17.0927C36.4718 17.5323 36.7188 18.1284 36.7188 18.75V27.5781C36.2121 27.4243 35.6857 27.3453 35.1562 27.3438H14.8438C14.3143 27.3453 13.7879 27.4243 13.2812 27.5781V18.75C13.2812 18.1284 13.5282 17.5323 13.9677 17.0927C14.4073 16.6532 15.0034 16.4062 15.625 16.4062ZM15.625 44.5312C15.625 45.1529 15.3781 45.749 14.9385 46.1885C14.499 46.6281 13.9029 46.875 13.2812 46.875C12.6596 46.875 12.0635 46.6281 11.624 46.1885C11.1844 45.749 10.9375 45.1529 10.9375 44.5312V42.1875H15.625V44.5312ZM39.0625 44.5312C39.0625 45.1529 38.8156 45.749 38.376 46.1885C37.9365 46.6281 37.3404 46.875 36.7188 46.875C36.0971 46.875 35.501 46.6281 35.0615 46.1885C34.6219 45.749 34.375 45.1529 34.375 44.5312V42.1875H39.0625V44.5312ZM42.9688 40.625H7.03125V38.2812H42.9688V40.625Z" />
<path d="M14.8437 31.25C14.3802 31.25 13.9271 31.3875 13.5416 31.645C13.1562 31.9025 12.8558 32.2686 12.6784 32.6968C12.501 33.1251 12.4546 33.5964 12.545 34.051C12.6355 34.5056 12.8587 34.9233 13.1865 35.251C13.5142 35.5788 13.9319 35.802 14.3865 35.8925C14.8411 35.9829 15.3124 35.9365 15.7407 35.7591C16.1689 35.5817 16.535 35.2813 16.7925 34.8959C17.05 34.5104 17.1875 34.0573 17.1875 33.5938C17.1875 32.9722 16.9406 32.376 16.501 31.9365C16.0615 31.4969 15.4654 31.25 14.8437 31.25ZM14.8437 34.375C14.6892 34.375 14.5382 34.3292 14.4097 34.2433C14.2812 34.1575 14.1811 34.0355 14.122 33.8927C14.0628 33.75 14.0474 33.5929 14.0775 33.4413C14.1077 33.2898 14.1821 33.1506 14.2913 33.0413C14.4006 32.9321 14.5398 32.8577 14.6913 32.8275C14.8429 32.7974 15 32.8128 15.1427 32.872C15.2855 32.9311 15.4075 33.0312 15.4933 33.1597C15.5792 33.2882 15.625 33.4392 15.625 33.5938C15.625 33.801 15.5427 33.9997 15.3962 34.1462C15.2497 34.2927 15.051 34.375 14.8437 34.375Z"/>
<path d="M35.1563 31.25C34.6927 31.25 34.2396 31.3875 33.8541 31.645C33.4687 31.9025 33.1683 32.2686 32.9909 32.6968C32.8135 33.1251 32.7671 33.5964 32.8575 34.051C32.948 34.5056 33.1712 34.9233 33.499 35.251C33.8268 35.5788 34.2444 35.802 34.699 35.8925C35.1537 35.9829 35.6249 35.9365 36.0532 35.7591C36.4814 35.5817 36.8475 35.2813 37.105 34.8959C37.3625 34.5104 37.5 34.0573 37.5 33.5938C37.5 32.9722 37.2531 32.376 36.8135 31.9365C36.374 31.4969 35.7779 31.25 35.1563 31.25ZM35.1563 34.375C35.0017 34.375 34.8507 34.3292 34.7222 34.2433C34.5937 34.1575 34.4936 34.0355 34.4345 33.8927C34.3753 33.75 34.3599 33.5929 34.39 33.4413C34.4202 33.2898 34.4946 33.1506 34.6038 33.0413C34.7131 32.9321 34.8523 32.8577 35.0038 32.8275C35.1554 32.7974 35.3125 32.8128 35.4552 32.872C35.598 32.9311 35.72 33.0312 35.8058 33.1597C35.8917 33.2882 35.9375 33.4392 35.9375 33.5938C35.9375 33.801 35.8552 33.9997 35.7087 34.1462C35.5622 34.2927 35.3635 34.375 35.1563 34.375Z" />
<path d="M15.625 25.7812H34.375C34.5822 25.7812 34.7809 25.6989 34.9274 25.5524C35.0739 25.4059 35.1562 25.2072 35.1562 25V18.75C35.1562 18.5428 35.0739 18.3441 34.9274 18.1976C34.7809 18.0511 34.5822 17.9688 34.375 17.9688H15.625C15.4178 17.9688 15.2191 18.0511 15.0726 18.1976C14.9261 18.3441 14.8438 18.5428 14.8438 18.75V25C14.8438 25.2072 14.9261 25.4059 15.0726 25.5524C15.2191 25.6989 15.4178 25.7812 15.625 25.7812ZM16.4062 19.5312H33.5938V24.2188H16.4062V19.5312Z" />
</g>
</svg>
