<svg width="48" height="48" viewBox="0 0 48 48" fill="none" xmlns="http://www.w3.org/2000/svg">
<path d="M30.75 22C31.1642 22 31.5 21.6642 31.5 21.25C31.5 20.8358 31.1642 20.5 30.75 20.5C30.3358 20.5 30 20.8358 30 21.25C30 21.6642 30.3358 22 30.75 22Z" fill="#9D9D9D"/>
<path d="M33.75 22C34.1642 22 34.5 21.6642 34.5 21.25C34.5 20.8358 34.1642 20.5 33.75 20.5C33.3358 20.5 33 20.8358 33 21.25C33 21.6642 33.3358 22 33.75 22Z" fill="#9D9D9D"/>
<path d="M22.5 20.5H28.5V22H22.5V20.5Z" fill="#9D9D9D"/>
<path d="M22.5 40.5H28.5V42H22.5V40.5Z" fill="#9D9D9D"/>
<path d="M45.75 39.75H43.5V20.1213C43.5 18.5641 42.8814 17.0708 41.7803 15.9697C40.6792 14.8686 39.1858 14.25 37.6287 14.25H37.5V3.75C37.4993 3.15347 37.2621 2.58157 36.8402 2.15975C36.4184 1.73794 35.8465 1.50067 35.25 1.5H15.75C15.1535 1.50067 14.5816 1.73794 14.1598 2.15975C13.7379 2.58157 13.5007 3.15347 13.5 3.75V6H15V3.75C15.0002 3.55116 15.0793 3.36052 15.2199 3.21992C15.3605 3.07932 15.5512 3.00023 15.75 3H35.25C35.4488 3.00023 35.6395 3.07932 35.7801 3.21992C35.9207 3.36052 35.9998 3.55116 36 3.75V19.2349C35.3645 18.7612 34.5732 18.5457 33.7853 18.6317C32.9974 18.7176 32.2712 19.0987 31.7528 19.6982C31.2343 20.2978 30.9621 21.0713 30.9907 21.8634C31.0194 22.6555 31.3468 23.4074 31.9072 23.9679L35.6894 27.75L35.2123 28.227C33.9923 29.4469 33.2858 31.0876 33.2379 32.8123C33.19 34.5369 33.8044 36.2143 34.9549 37.5H22.5V39H35.25C35.5054 39.0003 35.7591 38.9571 36 38.8723V42.75C35.9998 42.9488 35.9207 43.1395 35.7801 43.2801C35.6395 43.4207 35.4488 43.4998 35.25 43.5H15.75C15.5512 43.4998 15.3605 43.4207 15.2199 43.2801C15.0793 43.1395 15.0002 42.9488 15 42.75V40.5H13.5V42.75C13.5007 43.3465 13.7379 43.9184 14.1598 44.3402C14.5816 44.7621 15.1535 44.9993 15.75 45H28.5V46.5H30V45H35.25C35.8465 44.9993 36.4184 44.7621 36.8402 44.3402C37.2621 43.9184 37.4993 43.3465 37.5 42.75V41.25H45V46.5H46.5V40.5C46.5 40.3011 46.421 40.1103 46.2803 39.9697C46.1397 39.829 45.9489 39.75 45.75 39.75ZM37.5 39.75V38.25C37.5 38.0511 37.421 37.8603 37.2803 37.7196L36.273 36.7123C35.2884 35.7277 34.7353 34.3924 34.7353 33C34.7353 31.6076 35.2884 30.2723 36.273 29.2877L37.2803 28.2804C37.35 28.2107 37.4052 28.128 37.4429 28.037C37.4806 27.946 37.5 27.8485 37.5 27.75C37.5 27.6515 37.4806 27.554 37.4429 27.463C37.4052 27.372 37.35 27.2893 37.2803 27.2196L32.9678 22.9072C32.6609 22.6003 32.4885 22.1841 32.4885 21.75C32.4885 21.316 32.6609 20.8998 32.9678 20.5929C33.2747 20.286 33.691 20.1135 34.125 20.1135C34.559 20.1135 34.9753 20.286 35.2822 20.5929L37.7197 23.0304C37.8603 23.171 38.0511 23.25 38.25 23.25C38.4489 23.25 38.6397 23.171 38.7804 23.0303C38.921 22.8897 39 22.6989 39 22.5C39 22.3011 38.921 22.1103 38.7803 21.9696L37.5 20.6894V15.75H37.6287C38.2027 15.75 38.7712 15.863 39.3015 16.0827C39.8319 16.3024 40.3138 16.6244 40.7197 17.0303C41.1256 17.4362 41.4476 17.9181 41.6673 18.4484C41.8869 18.9788 42 19.5472 42 20.1213V39.75H37.5Z" fill="#9D9D9D"/>
<path d="M2.25 39H20.25C20.4489 39 20.6397 38.921 20.7803 38.7803C20.921 38.6397 21 38.4489 21 38.25V34.5H27C27.7954 34.4991 28.5579 34.1827 29.1203 33.6203C29.6827 33.0579 29.9991 32.2954 30 31.5V18H33.75C33.9489 18 34.1397 17.921 34.2803 17.7803C34.421 17.6397 34.5 17.4489 34.5 17.25V10.5C34.4991 9.70463 34.1827 8.94209 33.6203 8.37968C33.0579 7.81726 32.2954 7.5009 31.5 7.5H13.5C12.7046 7.5009 11.9421 7.81726 11.3797 8.37968C10.8173 8.94209 10.5009 9.70463 10.5 10.5V28.5H4.5C3.70463 28.5009 2.94209 28.8173 2.37968 29.3797C1.81726 29.9421 1.5009 30.7046 1.5 31.5V38.25C1.5 38.4489 1.57902 38.6397 1.71967 38.7803C1.86032 38.921 2.05109 39 2.25 39ZM31.5 9C31.8977 9.00045 32.279 9.15864 32.5602 9.43984C32.8414 9.72105 32.9995 10.1023 33 10.5V16.5H30V10.5C30.0005 10.1023 30.1586 9.72105 30.4398 9.43984C30.721 9.15864 31.1023 9.00045 31.5 9ZM21 31.5C21 31.1022 21.158 30.7206 21.4393 30.4393C21.7206 30.158 22.1022 30 22.5 30C22.8978 30 23.2794 30.158 23.5607 30.4393C23.842 30.7206 24 31.1022 24 31.5C23.9996 32.0269 24.1389 32.5445 24.4036 33H21V31.5ZM12 10.5C12.0005 10.1023 12.1586 9.72105 12.4398 9.43984C12.721 9.15864 13.1023 9.00045 13.5 9H28.9026C28.6383 9.45566 28.4994 9.97322 28.5 10.5V31.5C28.5 31.8978 28.342 32.2794 28.0607 32.5607C27.7794 32.842 27.3978 33 27 33C26.6022 33 26.2206 32.842 25.9393 32.5607C25.658 32.2794 25.5 31.8978 25.5 31.5C25.4991 30.7046 25.1827 29.9421 24.6203 29.3797C24.0579 28.8173 23.2954 28.5009 22.5 28.5H12V10.5ZM3 31.5C3.00045 31.1023 3.15864 30.721 3.43984 30.4398C3.72105 30.1586 4.10231 30.0005 4.5 30H19.9026C19.6383 30.4557 19.4994 30.9732 19.5 31.5V37.5H3V31.5Z" fill="#9D9D9D"/>
<path d="M14.25 26.5H27V28H14.25V26.5Z" fill="#9D9D9D"/>
<path d="M13.5 13.5H16.5V15H13.5V13.5Z" fill="#9D9D9D"/>
<path d="M24 13.5H27V15H24V13.5Z" fill="#9D9D9D"/>
<path d="M13.5 16.5H18V18H13.5V16.5Z" fill="#9D9D9D"/>
<path d="M24 16.5H27V18H24V16.5Z" fill="#9D9D9D"/>
<path d="M24 19.5H27V21H24V19.5Z" fill="#9D9D9D"/>
<path d="M24 25.5H27V27H24V25.5Z" fill="#9D9D9D"/>
<path d="M13.5 19.5H16.5V21H13.5V19.5Z" fill="#9D9D9D"/>
<path d="M13.5 22.5H27V24H13.5V22.5Z" fill="#9D9D9D"/>
<path d="M13.5 25.5H19.5V27H13.5V25.5Z" fill="#9D9D9D"/>
<path d="M7.5 31.5H15V33H7.5V31.5Z" fill="#9D9D9D"/>
<path d="M9 34.5H13.5V36H9V34.5Z" fill="#9D9D9D"/>
</svg>
